<svg data-v-fde0c5aa="" xmlns="http://www.w3.org/2000/svg" viewBox="0 0 300 300" class="iconAbove"><!----><defs data-v-fde0c5aa=""><!----></defs><rect data-v-fde0c5aa="" fill="#191c24" x="0" y="0" width="300px" height="300px" class="logo-background-square"></rect><defs data-v-fde0c5aa=""><!----></defs><g data-v-fde0c5aa="" id="14ca363e-6cdf-4e0d-8ed1-f0d653df44dd" fill="#FFFFFF" transform="matrix(1.3545249700546265,0,0,1.3545249700546265,19.349193105272796,162.3201733857018)"><path d="M4.30 12.46L4.30 12.46Q2.45 12.46 1.46 11.22L1.46 11.22L1.46 11.22Q0.48 9.98 0.48 7.49L0.48 7.49L0.48 7.49Q0.48 5.00 1.46 3.76L1.46 3.76L1.46 3.76Q2.45 2.52 4.30 2.52L4.30 2.52L4.30 2.52Q5.88 2.52 6.85 3.46L6.85 3.46L6.85 3.46Q7.83 4.40 7.83 6.26L7.83 6.26L5.99 6.26L5.99 6.26Q5.99 5.18 5.54 4.62L5.54 4.62L5.54 4.62Q5.08 4.06 4.30 4.06L4.30 4.06L4.30 4.06Q3.32 4.06 2.82 4.86L2.82 4.86L2.82 4.86Q2.32 5.67 2.32 7.14L2.32 7.14L2.32 7.84L2.32 7.84Q2.32 9.31 2.83 10.12L2.83 10.12L2.83 10.12Q3.35 10.92 4.35 10.92L4.35 10.92L4.35 10.92Q5.15 10.92 5.61 10.37L5.61 10.37L5.61 10.37Q6.08 9.81 6.08 8.74L6.08 8.74L7.83 8.74L7.83 8.74Q7.83 10.56 6.86 11.51L6.86 11.51L6.86 11.51Q5.89 12.46 4.30 12.46L4.30 12.46ZM12.75 12.46L12.75 12.46Q10.85 12.46 9.81 11.22L9.81 11.22L9.81 11.22Q8.76 9.98 8.76 7.49L8.76 7.49L8.76 7.49Q8.76 5.00 9.81 3.76L9.81 3.76L9.81 3.76Q10.85 2.52 12.75 2.52L12.75 2.52L12.75 2.52Q14.66 2.52 15.70 3.76L15.70 3.76L15.70 3.76Q16.74 5.00 16.74 7.49L16.74 7.49L16.74 7.49Q16.74 9.98 15.70 11.22L15.70 11.22L15.70 11.22Q14.66 12.46 12.75 12.46L12.75 12.46ZM12.75 10.92L12.75 10.92Q13.80 10.92 14.35 10.12L14.35 10.12L14.35 10.12Q14.90 9.31 14.90 7.84L14.90 7.84L14.90 7.14L14.90 7.14Q14.90 5.67 14.35 4.86L14.35 4.86L14.35 4.86Q13.80 4.06 12.75 4.06L12.75 4.06L12.75 4.06Q11.70 4.06 11.16 4.86L11.16 4.86L11.16 4.86Q10.61 5.67 10.61 7.14L10.61 7.14L10.61 7.84L10.61 7.84Q10.61 9.31 11.16 10.12L11.16 10.12L11.16 10.12Q11.70 10.92 12.75 10.92L12.75 10.92ZM20.15 12.29L17.22 2.69L19.07 2.69L21.08 9.56L21.14 9.56L23.13 2.69L24.88 2.69L21.95 12.29L20.15 12.29ZM25.58 12.29L25.58 2.69L27.37 2.69L27.37 12.29L25.58 12.29ZM28.91 12.29L28.91 2.69L32.03 2.69L32.03 2.69Q33.85 2.69 34.87 3.88L34.87 3.88L34.87 3.88Q35.88 5.07 35.88 7.35L35.88 7.35L35.88 7.35Q35.88 9.77 34.87 11.03L34.87 11.03L34.87 11.03Q33.87 12.29 32.03 12.29L32.03 12.29L28.91 12.29ZM30.70 10.70L31.86 10.70L31.86 10.70Q32.89 10.70 33.46 9.93L33.46 9.93L33.46 9.93Q34.03 9.17 34.03 7.70L34.03 7.70L34.03 7L34.03 7Q34.03 5.67 33.46 4.98L33.46 4.98L33.46 4.98Q32.89 4.28 31.86 4.28L31.86 4.28L30.70 4.28L30.70 10.70ZM36.92 12.29L36.92 10.88L39.07 10.88L39.07 4.89L36.90 4.89L36.90 3.77L36.90 3.77Q37.52 3.70 38.40 3.39L38.40 3.39L38.40 3.39Q39.28 3.09 39.93 2.69L39.93 2.69L40.75 2.69L40.75 10.88L42.73 10.88L42.73 12.29L36.92 12.29ZM45.93 12.46L45.93 12.46Q44.66 12.46 44.04 11.61L44.04 11.61L44.04 11.61Q43.41 10.75 43.41 9.34L43.41 9.34L45.14 9.34L45.14 9.34Q45.14 10.19 45.33 10.62L45.33 10.62L45.33 10.62Q45.53 11.05 45.99 11.05L45.99 11.05L45.99 11.05Q46.41 11.05 46.61 10.68L46.61 10.68L46.61 10.68Q46.82 10.32 46.89 9.69L46.89 9.69L46.89 9.69Q46.96 9.06 46.97 7.97L46.97 7.97L46.97 7.97Q46.73 8.33 46.34 8.53L46.34 8.53L46.34 8.53Q45.95 8.72 45.49 8.72L45.49 8.72L45.49 8.72Q44.35 8.72 43.76 7.87L43.76 7.87L43.76 7.87Q43.16 7.01 43.16 5.63L43.16 5.63L43.16 5.63Q43.16 4.69 43.51 3.98L43.51 3.98L43.51 3.98Q43.85 3.28 44.45 2.90L44.45 2.90L44.45 2.90Q45.05 2.52 45.81 2.52L45.81 2.52L45.81 2.52Q47.24 2.52 47.97 3.59L47.97 3.59L47.97 3.59Q48.71 4.66 48.71 7.21L48.71 7.21L48.71 7.21Q48.71 9.16 48.38 10.32L48.38 10.32L48.38 10.32Q48.06 11.48 47.45 11.97L47.45 11.97L47.45 11.97Q46.84 12.46 45.93 12.46L45.93 12.46ZM45.88 7.35L45.88 7.35Q46.37 7.35 46.62 6.89L46.62 6.89L46.62 6.89Q46.87 6.43 46.87 5.63L46.87 5.63L46.87 5.63Q46.87 4.87 46.62 4.40L46.62 4.40L46.62 4.40Q46.37 3.93 45.88 3.93L45.88 3.93L45.88 3.93Q45.39 3.93 45.14 4.40L45.14 4.40L45.14 4.40Q44.90 4.87 44.90 5.63L44.90 5.63L44.90 5.63Q44.90 6.43 45.14 6.89L45.14 6.89L45.14 6.89Q45.39 7.35 45.88 7.35L45.88 7.35ZM53.16 12.29L53.16 2.69L58.80 2.69L58.80 4.28L54.95 4.28L54.95 6.71L58.24 6.71L58.24 8.30L54.95 8.30L54.95 12.29L53.16 12.29ZM63.80 12.46L63.80 12.46Q61.89 12.46 60.85 11.22L60.85 11.22L60.85 11.22Q59.81 9.98 59.81 7.49L59.81 7.49L59.81 7.49Q59.81 5.00 60.85 3.76L60.85 3.76L60.85 3.76Q61.89 2.52 63.80 2.52L63.80 2.52L63.80 2.52Q65.70 2.52 66.75 3.76L66.75 3.76L66.75 3.76Q67.79 5.00 67.79 7.49L67.79 7.49L67.79 7.49Q67.79 9.98 66.75 11.22L66.75 11.22L66.75 11.22Q65.70 12.46 63.80 12.46L63.80 12.46ZM63.80 10.92L63.80 10.92Q64.85 10.92 65.39 10.12L65.39 10.12L65.39 10.12Q65.94 9.31 65.94 7.84L65.94 7.84L65.94 7.14L65.94 7.14Q65.94 5.67 65.39 4.86L65.39 4.86L65.39 4.86Q64.85 4.06 63.80 4.06L63.80 4.06L63.80 4.06Q62.75 4.06 62.20 4.86L62.20 4.86L62.20 4.86Q61.66 5.67 61.66 7.14L61.66 7.14L61.66 7.84L61.66 7.84Q61.66 9.31 62.20 10.12L62.20 10.12L62.20 10.12Q62.75 10.92 63.80 10.92L63.80 10.92ZM69.10 12.29L69.10 2.69L73.12 2.69L73.12 2.69Q74.54 2.69 75.30 3.44L75.30 3.44L75.30 3.44Q76.06 4.20 76.06 5.43L76.06 5.43L76.06 5.43Q76.06 6.30 75.64 6.94L75.64 6.94L75.64 6.94Q75.21 7.59 74.45 7.90L74.45 7.90L76.30 12.29L74.35 12.29L72.76 8.29L70.90 8.29L70.90 12.29L69.10 12.29ZM70.90 6.71L72.87 6.71L72.87 6.71Q73.50 6.71 73.82 6.38L73.82 6.38L73.82 6.38Q74.13 6.05 74.13 5.43L74.13 5.43L74.13 5.43Q74.13 4.89 73.84 4.58L73.84 4.58L73.84 4.58Q73.54 4.28 72.94 4.28L72.94 4.28L70.90 4.28L70.90 6.71ZM77.39 12.29L77.39 2.69L83.51 2.69L83.51 4.28L79.18 4.28L79.18 6.58L82.89 6.58L82.89 8.18L79.18 8.18L79.18 10.70L83.59 10.70L83.59 12.29L77.39 12.29ZM88.51 12.46L88.51 12.46Q86.66 12.46 85.67 11.22L85.67 11.22L85.67 11.22Q84.69 9.98 84.69 7.49L84.69 7.49L84.69 7.49Q84.69 5.00 85.67 3.76L85.67 3.76L85.67 3.76Q86.66 2.52 88.51 2.52L88.51 2.52L88.51 2.52Q90.09 2.52 91.06 3.46L91.06 3.46L91.06 3.46Q92.04 4.40 92.04 6.26L92.04 6.26L90.20 6.26L90.20 6.26Q90.20 5.18 89.75 4.62L89.75 4.62L89.75 4.62Q89.29 4.06 88.51 4.06L88.51 4.06L88.51 4.06Q87.53 4.06 87.03 4.86L87.03 4.86L87.03 4.86Q86.53 5.67 86.53 7.14L86.53 7.14L86.53 7.84L86.53 7.84Q86.53 9.31 87.05 10.12L87.05 10.12L87.05 10.12Q87.56 10.92 88.56 10.92L88.56 10.92L88.56 10.92Q89.36 10.92 89.82 10.37L89.82 10.37L89.82 10.37Q90.29 9.81 90.29 8.74L90.29 8.74L92.04 8.74L92.04 8.74Q92.04 10.56 91.07 11.51L91.07 11.51L91.07 11.51Q90.10 12.46 88.51 12.46L88.51 12.46ZM92.50 12.29L95.59 2.69L97.68 2.69L100.77 12.29L98.94 12.29L98.35 10.40L94.81 10.40L94.23 12.29L92.50 12.29ZM95.30 8.81L97.86 8.81L96.89 5.60L96.89 5.60Q96.80 5.29 96.71 4.86L96.71 4.86L96.71 4.86Q96.63 4.42 96.61 4.30L96.61 4.30L96.56 4.30L96.56 4.30Q96.53 4.44 96.45 4.88L96.45 4.88L96.45 4.88Q96.36 5.32 96.28 5.60L96.28 5.60L95.30 8.81ZM104.52 12.46L104.52 12.46Q103.61 12.46 102.86 12.12L102.86 12.12L102.86 12.12Q102.10 11.77 101.65 11.10L101.65 11.10L101.65 11.10Q101.21 10.43 101.21 9.48L101.21 9.48L101.22 9.17L103.08 9.17L103.07 9.39L103.07 9.39Q103.07 10.09 103.47 10.51L103.47 10.51L103.47 10.51Q103.88 10.92 104.61 10.92L104.61 10.92L104.61 10.92Q105.35 10.92 105.71 10.59L105.71 10.59L105.71 10.59Q106.06 10.26 106.06 9.79L106.06 9.79L106.06 9.79Q106.06 9.31 105.81 9.01L105.81 9.01L105.81 9.01Q105.56 8.71 105.19 8.54L105.19 8.54L105.19 8.54Q104.82 8.37 104.15 8.15L104.15 8.15L104.15 8.15Q103.26 7.87 102.72 7.59L102.72 7.59L102.72 7.59Q102.17 7.31 101.79 6.73L101.79 6.73L101.79 6.73Q101.40 6.16 101.40 5.21L101.40 5.21L101.40 5.21Q101.40 4.34 101.84 3.73L101.84 3.73L101.84 3.73Q102.27 3.12 103.00 2.82L103.00 2.82L103.00 2.82Q103.73 2.52 104.61 2.52L104.61 2.52L104.61 2.52Q105.98 2.52 106.86 3.23L106.86 3.23L106.86 3.23Q107.73 3.93 107.73 5.35L107.73 5.35L107.73 5.52L105.90 5.52L105.90 5.39L105.90 5.39Q105.90 4.77 105.55 4.42L105.55 4.42L105.55 4.42Q105.20 4.06 104.59 4.06L104.59 4.06L104.59 4.06Q103.96 4.06 103.61 4.35L103.61 4.35L103.61 4.35Q103.25 4.63 103.25 5.08L103.25 5.08L103.25 5.08Q103.25 5.47 103.49 5.73L103.49 5.73L103.49 5.73Q103.73 5.98 104.08 6.13L104.08 6.13L104.08 6.13Q104.44 6.29 105.07 6.48L105.07 6.48L105.07 6.48Q105.98 6.78 106.54 7.05L106.54 7.05L106.54 7.05Q107.10 7.32 107.51 7.90L107.51 7.90L107.51 7.90Q107.91 8.47 107.91 9.41L107.91 9.41L107.91 9.41Q107.91 10.99 107.01 11.72L107.01 11.72L107.01 11.72Q106.11 12.46 104.52 12.46L104.52 12.46ZM111.06 12.29L111.06 4.28L108.68 4.28L108.68 2.69L115.23 2.69L115.23 4.28L112.85 4.28L112.85 12.29L111.06 12.29ZM119.49 12.29L119.49 2.69L125.61 2.69L125.61 4.28L121.28 4.28L121.28 6.58L124.99 6.58L124.99 8.18L121.28 8.18L121.28 10.70L125.69 10.70L125.69 12.29L119.49 12.29ZM129.23 12.29L126.31 2.69L128.16 2.69L130.17 9.56L130.23 9.56L132.22 2.69L133.97 2.69L131.04 12.29L129.23 12.29ZM133.97 12.29L137.06 2.69L139.15 2.69L142.24 12.29L140.41 12.29L139.82 10.40L136.28 10.40L135.70 12.29L133.97 12.29ZM136.77 8.81L139.33 8.81L138.36 5.60L138.36 5.60Q138.26 5.29 138.18 4.86L138.18 4.86L138.18 4.86Q138.10 4.42 138.08 4.30L138.08 4.30L138.03 4.30L138.03 4.30Q138.00 4.44 137.91 4.88L137.91 4.88L137.91 4.88Q137.83 5.32 137.75 5.60L137.75 5.60L136.77 8.81ZM143.09 12.29L143.09 2.69L144.89 2.69L144.89 10.61L148.95 10.61L148.95 12.29L143.09 12.29ZM153.41 12.46L153.41 12.46Q151.84 12.46 150.98 11.64L150.98 11.64L150.98 11.64Q150.12 10.82 150.12 9.28L150.12 9.28L150.12 2.69L151.91 2.69L151.91 9.23L151.91 9.23Q151.91 10.05 152.31 10.49L152.31 10.49L152.31 10.49Q152.70 10.92 153.41 10.92L153.41 10.92L153.41 10.92Q154.13 10.92 154.53 10.49L154.53 10.49L154.53 10.49Q154.92 10.05 154.92 9.23L154.92 9.23L154.92 2.69L156.72 2.69L156.72 9.28L156.72 9.28Q156.72 10.82 155.85 11.64L155.85 11.64L155.85 11.64Q154.98 12.46 153.41 12.46L153.41 12.46ZM157.56 12.29L160.65 2.69L162.74 2.69L165.83 12.29L164.00 12.29L163.41 10.40L159.87 10.40L159.29 12.29L157.56 12.29ZM160.36 8.81L162.92 8.81L161.95 5.60L161.95 5.60Q161.85 5.29 161.77 4.86L161.77 4.86L161.77 4.86Q161.69 4.42 161.67 4.30L161.67 4.30L161.62 4.30L161.62 4.30Q161.59 4.44 161.50 4.88L161.50 4.88L161.50 4.88Q161.42 5.32 161.34 5.60L161.34 5.60L160.36 8.81ZM168.46 12.29L168.46 4.28L166.08 4.28L166.08 2.69L172.63 2.69L172.63 4.28L170.25 4.28L170.25 12.29L168.46 12.29ZM173.56 12.29L173.56 2.69L175.35 2.69L175.35 12.29L173.56 12.29ZM180.52 12.46L180.52 12.46Q178.61 12.46 177.57 11.22L177.57 11.22L177.57 11.22Q176.53 9.98 176.53 7.49L176.53 7.49L176.53 7.49Q176.53 5.00 177.57 3.76L177.57 3.76L177.57 3.76Q178.61 2.52 180.52 2.52L180.52 2.52L180.52 2.52Q182.42 2.52 183.46 3.76L183.46 3.76L183.46 3.76Q184.51 5.00 184.51 7.49L184.51 7.49L184.51 7.49Q184.51 9.98 183.46 11.22L183.46 11.22L183.46 11.22Q182.42 12.46 180.52 12.46L180.52 12.46ZM180.52 10.92L180.52 10.92Q181.57 10.92 182.11 10.12L182.11 10.12L182.11 10.12Q182.66 9.31 182.66 7.84L182.66 7.84L182.66 7.14L182.66 7.14Q182.66 5.67 182.11 4.86L182.11 4.86L182.11 4.86Q181.57 4.06 180.52 4.06L180.52 4.06L180.52 4.06Q179.47 4.06 178.92 4.86L178.92 4.86L178.92 4.86Q178.37 5.67 178.37 7.14L178.37 7.14L178.37 7.84L178.37 7.84Q178.37 9.31 178.92 10.12L178.92 10.12L178.92 10.12Q179.47 10.92 180.52 10.92L180.52 10.92ZM185.82 12.29L185.82 2.69L187.40 2.69L190.37 7.98L190.37 7.98Q190.47 8.13 190.62 8.45L190.62 8.45L190.62 8.45Q190.76 8.76 190.81 8.88L190.81 8.88L190.85 8.83L190.83 8.04L190.83 2.69L192.43 2.69L192.43 12.29L190.83 12.29L187.87 7L187.87 7Q187.75 6.78 187.62 6.50L187.62 6.50L187.62 6.50Q187.49 6.22 187.43 6.10L187.43 6.10L187.38 6.15L187.38 6.15Q187.38 6.23 187.39 6.47L187.39 6.47L187.39 6.47Q187.40 6.71 187.40 6.94L187.40 6.94L187.40 12.29L185.82 12.29Z"></path></g><defs data-v-fde0c5aa=""><!----></defs><g data-v-fde0c5aa="" id="8717e31b-f2e1-4190-983b-79dda7f376ea" stroke="none" fill="#FFAB8E" transform="matrix(0.2961823046207428,0,0,0.2961823046207428,132.96951711059162,117.14401889007094)"><path d="M81.858 30.772h-.533a.533.533 0 0 1 0-1.066h.533a.532.532 0 1 1 0 1.066zM78.659 30.772h-.535a.532.532 0 1 1 0-1.066h.535a.533.533 0 0 1 0 1.066zM75.458 30.772h-.532a.533.533 0 1 1 0-1.066h.532a.532.532 0 1 1 0 1.066zM72.258 30.772h-.533a.533.533 0 0 1 0-1.066h.533a.533.533 0 0 1 0 1.066zM69.059 30.772h-.535a.532.532 0 1 1 0-1.066h.535a.532.532 0 1 1 0 1.066zM65.857 30.772h-.531a.534.534 0 0 1-.535-.535c0-.294.238-.531.535-.531h.531a.534.534 0 0 1 0 1.066zM62.658 30.772h-.534a.532.532 0 1 1 0-1.066h.534a.534.534 0 0 1 0 1.066zM59.458 30.772h-.535a.534.534 0 0 1 0-1.066h.535a.533.533 0 0 1 0 1.066zM56.259 30.772h-.535a.532.532 0 1 1 0-1.066h.535a.533.533 0 0 1 0 1.066zM53.057 30.772h-.533a.532.532 0 1 1 0-1.066h.533a.533.533 0 1 1 0 1.066zM49.858 30.772h-.533a.534.534 0 0 1 0-1.066h.533a.534.534 0 0 1 0 1.066zM46.658 30.772h-.533a.533.533 0 0 1 0-1.066h.533a.533.533 0 0 1 0 1.066zM43.457 30.772h-.533a.532.532 0 1 1 0-1.066h.533a.534.534 0 0 1 0 1.066zM40.257 30.772h-.533a.532.532 0 1 1 0-1.066h.533a.533.533 0 1 1 0 1.066zM37.058 30.772h-.533a.532.532 0 1 1 0-1.066h.533a.532.532 0 1 1 0 1.066zM33.858 30.772h-.535a.532.532 0 1 1 0-1.066h.535a.533.533 0 0 1 0 1.066zM28.458 30.772h-.533a.532.532 0 1 1 0-1.066h.533a.534.534 0 0 1 0 1.066zM24.924 30.772h-.533a.532.532 0 1 1 0-1.066h.533a.533.533 0 1 1 0 1.066zM21.39 30.772h-.533a.532.532 0 1 1 0-1.066h.533a.532.532 0 1 1 0 1.066zM17.857 30.772h-.533a.532.532 0 1 1 0-1.066h.533a.533.533 0 1 1 0 1.066zM51.194 52.988h-.533a.532.532 0 1 1 0-1.066h.533a.533.533 0 0 1 0 1.066zm-3.199 0h-.533a.532.532 0 1 1 0-1.066h.533a.533.533 0 0 1 0 1.066zm-3.202 0h-.533a.533.533 0 0 1 0-1.066h.533a.533.533 0 0 1 0 1.066zm-3.199 0h-.533a.533.533 0 0 1 0-1.066h.533c.294 0 .534.239.534.533s-.24.533-.534.533zm-19.201 0h-.533c-.294 0-.531-.239-.531-.533s.237-.533.531-.533h.533a.534.534 0 1 1 0 1.066zm-3.199 0h-.534a.533.533 0 0 1 0-1.066h.534a.532.532 0 1 1 0 1.066zM100.034 75.203c-.292 0-.552-.239-.552-.533 0-.295.22-.533.514-.533h.038a.533.533 0 1 1 0 1.066zM97.33 75.203h-.531a.533.533 0 1 1 0-1.066h.531c.294 0 .535.238.535.533a.535.535 0 0 1-.535.533zM94.131 75.203h-.534a.533.533 0 0 1 0-1.066h.534a.533.533 0 1 1 0 1.066zM90.931 75.203h-.533a.532.532 0 1 1 0-1.066h.533a.533.533 0 0 1 0 1.066zM87.731 75.203h-.533a.532.532 0 1 1 0-1.066h.533a.533.533 0 1 1 0 1.066zM84.53 75.203h-.532a.532.532 0 1 1 0-1.066h.532c.294 0 .535.238.535.533a.535.535 0 0 1-.535.533zM81.332 75.203h-.535a.532.532 0 0 1-.531-.533c0-.295.237-.533.531-.533h.535a.532.532 0 0 1 0 1.066zM78.131 75.203h-.533a.532.532 0 1 1 0-1.066h.533a.533.533 0 1 1 0 1.066zM74.932 75.203h-.533a.533.533 0 1 1 0-1.066h.533a.533.533 0 1 1 0 1.066zM52.531 75.203h-.533a.534.534 0 1 1 0-1.066h.533a.534.534 0 1 1 0 1.066zM49.33 75.203h-.533a.533.533 0 0 1 0-1.066h.533a.532.532 0 1 1 0 1.066zM46.13 75.203h-.534a.533.533 0 0 1 0-1.066h.534a.533.533 0 1 1 0 1.066zM42.931 75.203h-.533a.533.533 0 0 1 0-1.066h.533a.533.533 0 1 1 0 1.066zM20.53 75.203h-.533a.533.533 0 0 1 0-1.066h.533a.533.533 0 1 1 0 1.066zM31.293 94.342a.533.533 0 0 1-.534-.532c0-.292.239-.552.534-.552.296 0 .535.218.535.512v.04a.533.533 0 0 1-.535.532zM31.293 91.637a.534.534 0 0 1-.534-.533v-.534a.534.534 0 0 1 1.069 0v.533a.534.534 0 0 1-.535.534zM31.293 69.236a.534.534 0 0 1-.534-.533v-.533a.534.534 0 0 1 1.069 0v.533a.533.533 0 0 1-.535.533zM31.293 46.838a.533.533 0 0 1-.534-.533v-.533a.535.535 0 0 1 1.069 0v.533a.533.533 0 0 1-.535.533zM31.293 43.639a.535.535 0 0 1-.534-.533v-.534c0-.295.239-.533.534-.533.296 0 .535.238.535.533v.534a.535.535 0 0 1-.535.533zM31.293 40.438a.534.534 0 0 1-.534-.533v-.533a.534.534 0 0 1 1.069 0v.533a.534.534 0 0 1-.535.533zM31.293 37.238a.535.535 0 0 1-.534-.534v-.533c0-.294.239-.532.534-.532.296 0 .535.238.535.532v.533a.533.533 0 0 1-.535.534zM31.293 34.038a.533.533 0 0 1-.534-.533v-.533a.534.534 0 1 1 1.069 0v.533a.533.533 0 0 1-.535.533zM31.293 30.838a.535.535 0 0 1-.534-.533v-.532c0-.296.239-.533.534-.533.296 0 .535.237.535.533v.532a.534.534 0 0 1-.535.533zM31.293 27.638a.533.533 0 0 1-.534-.533v-.534a.534.534 0 0 1 1.069 0v.534a.533.533 0 0 1-.535.533zM31.293 24.439a.535.535 0 0 1-.534-.534v-.533a.534.534 0 0 1 1.069 0v.533a.534.534 0 0 1-.535.534zM31.293 21.238a.535.535 0 0 1-.534-.534v-.533a.534.534 0 0 1 1.069 0v.533a.534.534 0 0 1-.535.534zM31.293 18.038a.533.533 0 0 1-.534-.532v-.534a.534.534 0 0 1 1.069 0v.534a.533.533 0 0 1-.535.532zM61.285 94.342a.531.531 0 0 1-.533-.532c0-.292.238-.552.533-.552.296 0 .534.218.534.512v.04a.532.532 0 0 1-.534.532zM61.285 91.637a.532.532 0 0 1-.533-.533v-.534a.533.533 0 1 1 1.067 0v.533a.533.533 0 0 1-.534.534zM61.285 88.438a.533.533 0 0 1-.533-.533v-.533a.532.532 0 1 1 1.067 0v.533a.534.534 0 0 1-.534.533zM61.285 85.238a.532.532 0 0 1-.533-.534v-.533a.533.533 0 1 1 1.067 0v.533a.532.532 0 0 1-.534.534zM61.285 62.839a.533.533 0 0 1-.533-.533v-.535a.533.533 0 1 1 1.067 0v.535a.534.534 0 0 1-.534.533zM61.285 40.438a.533.533 0 0 1-.533-.533v-.533a.533.533 0 1 1 1.067 0v.533a.533.533 0 0 1-.534.533zM61.285 37.238a.533.533 0 0 1-.533-.534v-.533c0-.294.238-.532.533-.532.296 0 .534.238.534.532v.533a.533.533 0 0 1-.534.534zM61.285 34.038a.532.532 0 0 1-.533-.533v-.533a.533.533 0 1 1 1.067 0v.533a.532.532 0 0 1-.534.533zM61.285 27.638a.532.532 0 0 1-.533-.533v-.534a.533.533 0 1 1 1.067 0v.534a.532.532 0 0 1-.534.533zM61.285 24.439a.533.533 0 0 1-.533-.534v-.533a.533.533 0 1 1 1.067 0v.533a.533.533 0 0 1-.534.534zM61.285 21.238a.533.533 0 0 1-.533-.534v-.533a.533.533 0 1 1 1.067 0v.533a.533.533 0 0 1-.534.534zM61.285 18.038a.531.531 0 0 1-.533-.532v-.534a.533.533 0 1 1 1.067 0v.534a.532.532 0 0 1-.534.532zM92.129 94.342a.532.532 0 0 1-.533-.532c0-.292.239-.552.533-.552.296 0 .535.218.535.512v.04a.533.533 0 0 1-.535.532zM92.129 91.637a.533.533 0 0 1-.533-.533v-.534a.533.533 0 0 1 1.068 0v.533a.534.534 0 0 1-.535.534zM92.129 88.438a.533.533 0 0 1-.533-.533v-.533a.533.533 0 1 1 1.068 0v.533a.535.535 0 0 1-.535.533zM92.129 85.238a.532.532 0 0 1-.533-.534v-.533a.533.533 0 0 1 1.068 0v.533a.533.533 0 0 1-.535.534zM92.129 82.038a.533.533 0 0 1-.533-.533v-.533c0-.296.239-.533.533-.533.296 0 .535.237.535.533v.533a.533.533 0 0 1-.535.533zM92.129 78.839a.533.533 0 0 1-.533-.533v-.533a.533.533 0 1 1 1.068 0v.533a.534.534 0 0 1-.535.533zM92.129 72.439a.533.533 0 0 1-.533-.535v-.533a.533.533 0 0 1 1.068 0v.533a.534.534 0 0 1-.535.535zM92.129 69.236a.533.533 0 0 1-.533-.533v-.533a.533.533 0 0 1 1.068 0v.533a.533.533 0 0 1-.535.533zM92.129 66.037a.53.53 0 0 1-.533-.533v-.533a.533.533 0 1 1 1.068 0v.533a.531.531 0 0 1-.535.533zM92.129 43.639a.534.534 0 0 1-.533-.533v-.534a.533.533 0 1 1 1.068 0v.534a.535.535 0 0 1-.535.533zM92.129 21.238a.534.534 0 0 1-.533-.534v-.533a.533.533 0 0 1 1.068 0v.533a.534.534 0 0 1-.535.534zM92.129 18.038a.532.532 0 0 1-.533-.532v-.534a.533.533 0 0 1 1.068 0v.534a.533.533 0 0 1-.535.532z"></path><path d="M92.073 23.743c-4.617 0-8.372 3.751-8.372 8.368 0 2.024.722 3.88 1.918 5.329-4.045 5.673-15.726 22.046-19.504 27.344a8.331 8.331 0 0 0-2.933-.54 8.356 8.356 0 0 0-6.446 3.037l-17.71-8.117c.076-.457.126-.921.126-1.402 0-4.617-3.755-8.368-8.37-8.368-4.616 0-8.371 3.751-8.371 8.368 0 4.616 3.755 8.37 8.371 8.37 2.59 0 4.91-1.185 6.448-3.039l17.708 8.118a8.285 8.285 0 0 0-.128 1.401c0 4.617 3.757 8.371 8.372 8.371s8.369-3.754 8.369-8.371a8.33 8.33 0 0 0-1.976-5.39c1.687-2.22 4.585-6.278 9.901-13.736l9.663-13.545a8.34 8.34 0 0 0 2.933.541c4.612 0 8.368-3.754 8.368-8.371s-3.754-8.368-8.367-8.368zm-61.29 38.069c-2.231 0-4.051-1.818-4.051-4.051s1.82-4.048 4.051-4.048c2.233 0 4.048 1.815 4.048 4.048s-1.814 4.051-4.048 4.051zm32.4 14.849a4.055 4.055 0 0 1-4.05-4.05 4.056 4.056 0 0 1 4.05-4.048 4.056 4.056 0 0 1 4.05 4.048 4.055 4.055 0 0 1-4.05 4.05zm28.89-40.501a4.054 4.054 0 0 1-4.051-4.049 4.054 4.054 0 0 1 4.051-4.047 4.052 4.052 0 0 1 4.048 4.047 4.052 4.052 0 0 1-4.048 4.049z"></path><path d="M90.991 45.88c-3.646 0-6.745 2.349-7.89 5.609l-13.557-1.016c-.647-3.975-4.095-7.021-8.252-7.021-4.614 0-8.369 3.754-8.369 8.369 0 1.326.317 2.575.868 3.691-1.586 1.381-4.055 3.579-7.859 6.993l-11.616 10.42a8.326 8.326 0 0 0-4.614-1.389c-4.614 0-8.368 3.75-8.368 8.365 0 4.616 3.753 8.37 8.368 8.37 4.616 0 8.371-3.754 8.371-8.37a8.302 8.302 0 0 0-.89-3.732c4.818-4.297 15.202-13.55 19.49-17.372a8.32 8.32 0 0 0 4.619 1.396c3.576 0 6.626-2.257 7.822-5.419l13.657 1.022c.728 3.88 4.133 6.825 8.219 6.825 4.618 0 8.371-3.752 8.371-8.37.001-4.613-3.752-8.371-8.37-8.371zM29.703 83.949a4.051 4.051 0 0 1-4.048-4.048c0-2.231 1.814-4.048 4.048-4.048s4.051 1.816 4.051 4.048a4.053 4.053 0 0 1-4.051 4.048zm31.59-28.078c-1.57 0-2.92-.907-3.59-2.216l-.075-.288-.054.055a4.062 4.062 0 0 1-.332-1.601 4.056 4.056 0 0 1 4.051-4.05 4.057 4.057 0 0 1 4.049 4.05 4.055 4.055 0 0 1-4.049 4.05zm29.698 2.431a4.054 4.054 0 0 1-4.048-4.05 4.054 4.054 0 0 1 4.048-4.05 4.055 4.055 0 0 1 4.05 4.05 4.054 4.054 0 0 1-4.05 4.05z"></path><path d="M104.834 103.277H10.167a2.665 2.665 0 0 1-2.667-2.665V15.011a2.665 2.665 0 0 1 2.667-2.665 2.664 2.664 0 0 1 2.666 2.665v82.933h92.001a2.666 2.666 0 0 1 0 5.333z"></path></g><!----></svg>